<svg xmlns="http://www.w3.org/2000/svg" width="201.365" height="196.556" viewBox="0 0 201.365 196.556">
  <g id="undraw_no_data_re_kwbl" transform="translate(-0.001 -0.004)">
    <path id="Path_1" data-name="Path 1" d="M430.991,197.551H376.731a4.67,4.67,0,0,0-4.664,4.664V322.806l-.622.19-13.311,4.076a2.489,2.489,0,0,1-3.106-1.651L315.436,196.092a2.488,2.488,0,0,1,1.651-3.106l20.512-6.281,59.464-18.2,20.512-6.281a2.484,2.484,0,0,1,3.106,1.648l10.12,33.057Z" transform="translate(-303.155 -153.343)" fill="#f2f2f2"/>
    <path id="Path_2" data-name="Path 2" d="M415.857,177.5l-12.2-39.842a5.284,5.284,0,0,0-6.6-3.507l-28.838,8.827-59.461,18.2-28.838,8.83a5.29,5.29,0,0,0-3.507,6.6L318.1,312.776a5.294,5.294,0,0,0,5.056,3.74,5.22,5.22,0,0,0,1.545-.233l19.769-6.051.622-.193v-.65l-.622.19-19.952,6.11A4.668,4.668,0,0,1,318.7,312.6L277.012,176.429a4.657,4.657,0,0,1,3.094-5.824l28.838-8.83,59.461-18.2,28.838-8.83a4.659,4.659,0,0,1,5.824,3.094L415.207,177.5l.193.622h.647Z" transform="translate(-276.182 -133.913)" fill="#3f3d56"/>
    <path id="Path_3" data-name="Path 3" d="M383.78,183.223a2.8,2.8,0,0,1-2.677-1.98l-4-13.081a2.8,2.8,0,0,1,1.857-3.495l54.7-16.748a2.8,2.8,0,0,1,3.5,1.856l4,13.081a2.8,2.8,0,0,1-1.856,3.495L384.6,183.1A2.791,2.791,0,0,1,383.78,183.223Z" transform="translate(-345.635 -143.478)" fill="#6c63ff"/>
    <circle id="Ellipse_2" data-name="Ellipse 2" cx="6.218" cy="6.218" r="6.218" transform="translate(52.906 1.543)" fill="#6c63ff"/>
    <circle id="Ellipse_3" data-name="Ellipse 3" cx="3.938" cy="3.938" r="3.938" transform="translate(55.186 3.824)" fill="#fff"/>
    <path id="Path_4" data-name="Path 4" d="M640.053,425.3H534.961a2.646,2.646,0,0,1-2.643-2.643V296.73a2.646,2.646,0,0,1,2.643-2.643H640.053a2.646,2.646,0,0,1,2.643,2.643V422.654A2.646,2.646,0,0,1,640.053,425.3Z" transform="translate(-452.679 -244.283)" fill="#e6e6e6"/>
    <path id="Path_5" data-name="Path 5" d="M566.553,274.087H501.1a5.293,5.293,0,0,0-5.286,5.286V406.167l.622-.19v-126.6a4.67,4.67,0,0,1,4.664-4.664h65.642Zm57.054,0H501.1a5.293,5.293,0,0,0-5.286,5.286v142.4a5.293,5.293,0,0,0,5.286,5.286h122.5a5.293,5.293,0,0,0,5.286-5.286v-142.4A5.293,5.293,0,0,0,623.607,274.087Zm4.664,147.689a4.67,4.67,0,0,1-4.664,4.664H501.1a4.67,4.67,0,0,1-4.664-4.664v-142.4a4.669,4.669,0,0,1,4.664-4.664h122.5a4.67,4.67,0,0,1,4.664,4.664Z" transform="translate(-427.527 -230.501)" fill="#3f3d56"/>
    <path id="Path_6" data-name="Path 6" d="M668.826,275.364h-57.21a2.8,2.8,0,0,1-2.8-2.8V258.885a2.8,2.8,0,0,1,2.8-2.8h57.21a2.8,2.8,0,0,1,2.8,2.8v13.681A2.8,2.8,0,0,1,668.826,275.364Z" transform="translate(-505.393 -218.098)" fill="#6c63ff"/>
    <circle id="Ellipse_4" data-name="Ellipse 4" cx="6.218" cy="6.218" r="6.218" transform="translate(128.61 26.485)" fill="#6c63ff"/>
    <circle id="Ellipse_5" data-name="Ellipse 5" cx="3.788" cy="3.788" r="3.788" transform="translate(131.041 28.916)" fill="#fff"/>
  </g>
</svg>
